<?xml version="1.0" encoding="UTF-8" standalone="no"?>
<!DOCTYPE svg PUBLIC "-//W3C//DTD SVG 1.1//EN"
 "http://www.w3.org/Graphics/SVG/1.1/DTD/svg11.dtd">
<!-- Generated by graphviz version 2.38.0 (20140413.2041)
 -->
<!-- Title: controllers_diagram Pages: 1 -->
<svg width="1122pt" height="197pt"
 viewBox="0.00 0.00 1122.13 197.00" xmlns="http://www.w3.org/2000/svg" xmlns:xlink="http://www.w3.org/1999/xlink">
<g id="graph0" class="graph" transform="scale(1 1) rotate(0) translate(4 193)">
<title>controllers_diagram</title>
<polygon fill="white" stroke="none" points="-4,4 -4,-193 1118.13,-193 1118.13,4 -4,4"/>
<!-- ApplicationController -->
<g id="node1" class="node"><title>ApplicationController</title>
<path fill="none" stroke="black" d="M12,-49.5C12,-49.5 190.635,-49.5 190.635,-49.5 196.635,-49.5 202.635,-55.5 202.635,-61.5 202.635,-61.5 202.635,-127.5 202.635,-127.5 202.635,-133.5 196.635,-139.5 190.635,-139.5 190.635,-139.5 12,-139.5 12,-139.5 6,-139.5 0,-133.5 0,-127.5 0,-127.5 0,-61.5 0,-61.5 0,-55.5 6,-49.5 12,-49.5"/>
<text text-anchor="middle" x="101.317" y="-124.3" font-family="Times,serif" font-size="14.00">ApplicationController</text>
<polyline fill="none" stroke="black" points="0,-117.5 202.635,-117.5 "/>
<text text-anchor="start" x="8" y="-102.3" font-family="Times,serif" font-size="14.00">_one_time_conditions_valid_98?</text>
<polyline fill="none" stroke="black" points="0,-95.5 202.635,-95.5 "/>
<polyline fill="none" stroke="black" points="0,-71.5 202.635,-71.5 "/>
<text text-anchor="start" x="8" y="-56.3" font-family="Times,serif" font-size="14.00">_layout</text>
</g>
<!-- HomeController -->
<g id="node2" class="node"><title>HomeController</title>
<path fill="none" stroke="black" d="M232.438,-49.5C232.438,-49.5 316.197,-49.5 316.197,-49.5 322.197,-49.5 328.197,-55.5 328.197,-61.5 328.197,-61.5 328.197,-127.5 328.197,-127.5 328.197,-133.5 322.197,-139.5 316.197,-139.5 316.197,-139.5 232.438,-139.5 232.438,-139.5 226.438,-139.5 220.438,-133.5 220.438,-127.5 220.438,-127.5 220.438,-61.5 220.438,-61.5 220.438,-55.5 226.438,-49.5 232.438,-49.5"/>
<text text-anchor="middle" x="274.317" y="-124.3" font-family="Times,serif" font-size="14.00">HomeController</text>
<polyline fill="none" stroke="black" points="220.438,-117.5 328.197,-117.5 "/>
<text text-anchor="start" x="228.438" y="-102.3" font-family="Times,serif" font-size="14.00">index</text>
<polyline fill="none" stroke="black" points="220.438,-95.5 328.197,-95.5 "/>
<polyline fill="none" stroke="black" points="220.438,-71.5 328.197,-71.5 "/>
<text text-anchor="start" x="228.438" y="-56.3" font-family="Times,serif" font-size="14.00">_layout</text>
</g>
<!-- OmniauthCallbacksController -->
<g id="node3" class="node"><title>OmniauthCallbacksController</title>
<path fill="none" stroke="black" d="M357.945,-35.5C357.945,-35.5 518.69,-35.5 518.69,-35.5 524.69,-35.5 530.69,-41.5 530.69,-47.5 530.69,-47.5 530.69,-141.5 530.69,-141.5 530.69,-147.5 524.69,-153.5 518.69,-153.5 518.69,-153.5 357.945,-153.5 357.945,-153.5 351.945,-153.5 345.945,-147.5 345.945,-141.5 345.945,-141.5 345.945,-47.5 345.945,-47.5 345.945,-41.5 351.945,-35.5 357.945,-35.5"/>
<text text-anchor="middle" x="438.317" y="-138.3" font-family="Times,serif" font-size="14.00">OmniauthCallbacksController</text>
<polyline fill="none" stroke="black" points="345.945,-131.5 530.69,-131.5 "/>
<text text-anchor="start" x="353.945" y="-116.3" font-family="Times,serif" font-size="14.00">github</text>
<text text-anchor="start" x="353.945" y="-102.3" font-family="Times,serif" font-size="14.00">google_oauth2</text>
<text text-anchor="start" x="353.945" y="-88.3" font-family="Times,serif" font-size="14.00">handle_callback</text>
<polyline fill="none" stroke="black" points="345.945,-81.5 530.69,-81.5 "/>
<polyline fill="none" stroke="black" points="345.945,-57.5 530.69,-57.5 "/>
<text text-anchor="start" x="353.945" y="-42.3" font-family="Times,serif" font-size="14.00">_layout</text>
</g>
<!-- PortfoliosController -->
<g id="node4" class="node"><title>PortfoliosController</title>
<path fill="none" stroke="black" d="M560.756,-0.5C560.756,-0.5 745.878,-0.5 745.878,-0.5 751.878,-0.5 757.878,-6.5 757.878,-12.5 757.878,-12.5 757.878,-176.5 757.878,-176.5 757.878,-182.5 751.878,-188.5 745.878,-188.5 745.878,-188.5 560.756,-188.5 560.756,-188.5 554.756,-188.5 548.756,-182.5 548.756,-176.5 548.756,-176.5 548.756,-12.5 548.756,-12.5 548.756,-6.5 554.756,-0.5 560.756,-0.5"/>
<text text-anchor="middle" x="653.317" y="-173.3" font-family="Times,serif" font-size="14.00">PortfoliosController</text>
<polyline fill="none" stroke="black" points="548.756,-166.5 757.878,-166.5 "/>
<text text-anchor="start" x="556.756" y="-151.3" font-family="Times,serif" font-size="14.00">_one_time_conditions_valid_118?</text>
<text text-anchor="start" x="556.756" y="-137.3" font-family="Times,serif" font-size="14.00">create</text>
<text text-anchor="start" x="556.756" y="-123.3" font-family="Times,serif" font-size="14.00">destroy</text>
<text text-anchor="start" x="556.756" y="-109.3" font-family="Times,serif" font-size="14.00">edit</text>
<text text-anchor="start" x="556.756" y="-95.3" font-family="Times,serif" font-size="14.00">index</text>
<text text-anchor="start" x="556.756" y="-81.3" font-family="Times,serif" font-size="14.00">new</text>
<text text-anchor="start" x="556.756" y="-67.3" font-family="Times,serif" font-size="14.00">show</text>
<text text-anchor="start" x="556.756" y="-53.3" font-family="Times,serif" font-size="14.00">update</text>
<polyline fill="none" stroke="black" points="548.756,-46.5 757.878,-46.5 "/>
<polyline fill="none" stroke="black" points="548.756,-22.5 757.878,-22.5 "/>
<text text-anchor="start" x="556.756" y="-7.3" font-family="Times,serif" font-size="14.00">_layout</text>
</g>
<!-- StocksController -->
<g id="node5" class="node"><title>StocksController</title>
<path fill="none" stroke="black" d="M787.876,-7.5C787.876,-7.5 874.759,-7.5 874.759,-7.5 880.759,-7.5 886.759,-13.5 886.759,-19.5 886.759,-19.5 886.759,-169.5 886.759,-169.5 886.759,-175.5 880.759,-181.5 874.759,-181.5 874.759,-181.5 787.876,-181.5 787.876,-181.5 781.876,-181.5 775.876,-175.5 775.876,-169.5 775.876,-169.5 775.876,-19.5 775.876,-19.5 775.876,-13.5 781.876,-7.5 787.876,-7.5"/>
<text text-anchor="middle" x="831.317" y="-166.3" font-family="Times,serif" font-size="14.00">StocksController</text>
<polyline fill="none" stroke="black" points="775.876,-159.5 886.759,-159.5 "/>
<text text-anchor="start" x="783.876" y="-144.3" font-family="Times,serif" font-size="14.00">create</text>
<text text-anchor="start" x="783.876" y="-130.3" font-family="Times,serif" font-size="14.00">destroy</text>
<text text-anchor="start" x="783.876" y="-116.3" font-family="Times,serif" font-size="14.00">edit</text>
<text text-anchor="start" x="783.876" y="-102.3" font-family="Times,serif" font-size="14.00">index</text>
<text text-anchor="start" x="783.876" y="-88.3" font-family="Times,serif" font-size="14.00">new</text>
<text text-anchor="start" x="783.876" y="-74.3" font-family="Times,serif" font-size="14.00">show</text>
<text text-anchor="start" x="783.876" y="-60.3" font-family="Times,serif" font-size="14.00">update</text>
<polyline fill="none" stroke="black" points="775.876,-53.5 886.759,-53.5 "/>
<polyline fill="none" stroke="black" points="775.876,-29.5 886.759,-29.5 "/>
<text text-anchor="start" x="783.876" y="-14.3" font-family="Times,serif" font-size="14.00">_layout</text>
</g>
<!-- UsersController -->
<g id="node6" class="node"><title>UsersController</title>
<path fill="none" stroke="black" d="M916.5,-28.5C916.5,-28.5 1102.13,-28.5 1102.13,-28.5 1108.13,-28.5 1114.13,-34.5 1114.13,-40.5 1114.13,-40.5 1114.13,-148.5 1114.13,-148.5 1114.13,-154.5 1108.13,-160.5 1102.13,-160.5 1102.13,-160.5 916.5,-160.5 916.5,-160.5 910.5,-160.5 904.5,-154.5 904.5,-148.5 904.5,-148.5 904.5,-40.5 904.5,-40.5 904.5,-34.5 910.5,-28.5 916.5,-28.5"/>
<text text-anchor="middle" x="1009.32" y="-145.3" font-family="Times,serif" font-size="14.00">UsersController</text>
<polyline fill="none" stroke="black" points="904.5,-138.5 1114.13,-138.5 "/>
<text text-anchor="start" x="912.5" y="-123.3" font-family="Times,serif" font-size="14.00">_one_time_conditions_valid_152?</text>
<text text-anchor="start" x="912.5" y="-109.3" font-family="Times,serif" font-size="14.00">create</text>
<text text-anchor="start" x="912.5" y="-95.3" font-family="Times,serif" font-size="14.00">edit</text>
<text text-anchor="start" x="912.5" y="-81.3" font-family="Times,serif" font-size="14.00">index</text>
<polyline fill="none" stroke="black" points="904.5,-74.5 1114.13,-74.5 "/>
<polyline fill="none" stroke="black" points="904.5,-50.5 1114.13,-50.5 "/>
<text text-anchor="start" x="912.5" y="-35.3" font-family="Times,serif" font-size="14.00">_layout</text>
</g>
</g>
</svg>
