<?xml version="1.0" encoding="UTF-8" standalone="no"?>
<!DOCTYPE svg PUBLIC "-//W3C//DTD SVG 1.1//EN"
 "http://www.w3.org/Graphics/SVG/1.1/DTD/svg11.dtd">
<!-- Generated by graphviz version 2.38.0 (20140413.2041)
 -->
<!-- Title: controllers_diagram Pages: 1 -->
<svg width="971pt" height="617pt"
 viewBox="0.00 0.00 971.27 617.00" xmlns="http://www.w3.org/2000/svg" xmlns:xlink="http://www.w3.org/1999/xlink">
<g id="graph0" class="graph" transform="scale(1 1) rotate(0) translate(213.513 332.82)">
<title>controllers_diagram</title>
<polygon fill="white" stroke="none" points="-213.513,284.179 -213.513,-332.82 757.757,-332.82 757.757,284.179 -213.513,284.179"/>
<!-- _diagram_info -->
<g id="node1" class="node"><title>_diagram_info</title>
<text text-anchor="start" x="288.312" y="10.9" font-family="Times,serif" font-size="13.00">Controllers diagram</text>
<text text-anchor="start" x="288.312" y="23.9" font-family="Times,serif" font-size="13.00">Date: Sep 15 2014 &#45; 09:18</text>
<text text-anchor="start" x="288.312" y="36.9" font-family="Times,serif" font-size="13.00">Migration version: 20140913212655</text>
<text text-anchor="start" x="288.312" y="49.9" font-family="Times,serif" font-size="13.00">Generated by RailRoady 1.1.2</text>
<text text-anchor="start" x="288.312" y="62.9" font-family="Times,serif" font-size="13.00">http://railroady.prestonlee.com</text>
</g>
<!-- ApplicationController -->
<g id="node2" class="node"><title>ApplicationController</title>
<path fill="none" stroke="black" d="M-197.513,176.267C-197.513,176.267 -18.8783,176.267 -18.8783,176.267 -12.8783,176.267 -6.87826,170.267 -6.87826,164.267 -6.87826,164.267 -6.87826,98.267 -6.87826,98.267 -6.87826,92.267 -12.8783,86.267 -18.8783,86.267 -18.8783,86.267 -197.513,86.267 -197.513,86.267 -203.513,86.267 -209.513,92.267 -209.513,98.267 -209.513,98.267 -209.513,164.267 -209.513,164.267 -209.513,170.267 -203.513,176.267 -197.513,176.267"/>
<text text-anchor="middle" x="-108.196" y="101.467" font-family="Times,serif" font-size="14.00">ApplicationController</text>
<polyline fill="none" stroke="black" points="-209.513,108.267 -6.87826,108.267 "/>
<text text-anchor="start" x="-201.513" y="123.467" font-family="Times,serif" font-size="14.00">_one_time_conditions_valid_98?</text>
<polyline fill="none" stroke="black" points="-209.513,130.267 -6.87826,130.267 "/>
<polyline fill="none" stroke="black" points="-209.513,154.267 -6.87826,154.267 "/>
<text text-anchor="start" x="-201.513" y="169.467" font-family="Times,serif" font-size="14.00">_layout</text>
</g>
<!-- HomeController -->
<g id="node3" class="node"><title>HomeController</title>
<path fill="none" stroke="black" d="M112.962,-52.263C112.962,-52.263 196.721,-52.263 196.721,-52.263 202.721,-52.263 208.721,-58.263 208.721,-64.263 208.721,-64.263 208.721,-130.263 208.721,-130.263 208.721,-136.263 202.721,-142.263 196.721,-142.263 196.721,-142.263 112.962,-142.263 112.962,-142.263 106.962,-142.263 100.962,-136.263 100.962,-130.263 100.962,-130.263 100.962,-64.263 100.962,-64.263 100.962,-58.263 106.962,-52.263 112.962,-52.263"/>
<text text-anchor="middle" x="154.842" y="-127.063" font-family="Times,serif" font-size="14.00">HomeController</text>
<polyline fill="none" stroke="black" points="100.962,-120.263 208.721,-120.263 "/>
<text text-anchor="start" x="108.962" y="-105.063" font-family="Times,serif" font-size="14.00">index</text>
<polyline fill="none" stroke="black" points="100.962,-98.263 208.721,-98.263 "/>
<polyline fill="none" stroke="black" points="100.962,-74.263 208.721,-74.263 "/>
<text text-anchor="start" x="108.962" y="-59.063" font-family="Times,serif" font-size="14.00">_layout</text>
</g>
<!-- ApplicationController&#45;&gt;HomeController -->
<g id="edge1" class="edge"><title>ApplicationController&#45;&gt;HomeController</title>
<path fill="none" stroke="black" d="M-56.2279,86.1168C-10.1139,46.0524 56.9006,-12.1705 102.982,-52.2066"/>
</g>
<!-- PortfoliosController -->
<g id="node5" class="node"><title>PortfoliosController</title>
<path fill="none" stroke="black" d="M28.9067,279.648C28.9067,279.648 214.029,279.648 214.029,279.648 220.029,279.648 226.029,273.648 226.029,267.648 226.029,267.648 226.029,103.648 226.029,103.648 226.029,97.6475 220.029,91.6475 214.029,91.6475 214.029,91.6475 28.9067,91.6475 28.9067,91.6475 22.9067,91.6475 16.9067,97.6475 16.9067,103.648 16.9067,103.648 16.9067,267.648 16.9067,267.648 16.9067,273.648 22.9067,279.648 28.9067,279.648"/>
<text text-anchor="middle" x="121.468" y="106.848" font-family="Times,serif" font-size="14.00">PortfoliosController</text>
<polyline fill="none" stroke="black" points="16.9067,113.648 226.029,113.648 "/>
<text text-anchor="start" x="24.9067" y="128.848" font-family="Times,serif" font-size="14.00">_one_time_conditions_valid_118?</text>
<text text-anchor="start" x="24.9067" y="142.848" font-family="Times,serif" font-size="14.00">create</text>
<text text-anchor="start" x="24.9067" y="156.848" font-family="Times,serif" font-size="14.00">destroy</text>
<text text-anchor="start" x="24.9067" y="170.848" font-family="Times,serif" font-size="14.00">edit</text>
<text text-anchor="start" x="24.9067" y="184.848" font-family="Times,serif" font-size="14.00">index</text>
<text text-anchor="start" x="24.9067" y="198.848" font-family="Times,serif" font-size="14.00">new</text>
<text text-anchor="start" x="24.9067" y="212.848" font-family="Times,serif" font-size="14.00">show</text>
<text text-anchor="start" x="24.9067" y="226.848" font-family="Times,serif" font-size="14.00">update</text>
<polyline fill="none" stroke="black" points="16.9067,233.648 226.029,233.648 "/>
<polyline fill="none" stroke="black" points="16.9067,257.648 226.029,257.648 "/>
<text text-anchor="start" x="24.9067" y="272.848" font-family="Times,serif" font-size="14.00">_layout</text>
</g>
<!-- ApplicationController&#45;&gt;PortfoliosController -->
<g id="edge3" class="edge"><title>ApplicationController&#45;&gt;PortfoliosController</title>
<path fill="none" stroke="black" d="M-6.79343,155.277C1.01719,157.127 8.91184,158.996 16.7433,160.851"/>
</g>
<!-- StocksController -->
<g id="node6" class="node"><title>StocksController</title>
<path fill="none" stroke="black" d="M-122.466,-58.8211C-122.466,-58.8211 -35.5833,-58.8211 -35.5833,-58.8211 -29.5833,-58.8211 -23.5833,-64.8211 -23.5833,-70.8211 -23.5833,-70.8211 -23.5833,-220.821 -23.5833,-220.821 -23.5833,-226.821 -29.5833,-232.821 -35.5833,-232.821 -35.5833,-232.821 -122.466,-232.821 -122.466,-232.821 -128.466,-232.821 -134.466,-226.821 -134.466,-220.821 -134.466,-220.821 -134.466,-70.8211 -134.466,-70.8211 -134.466,-64.8211 -128.466,-58.8211 -122.466,-58.8211"/>
<text text-anchor="middle" x="-79.0247" y="-217.621" font-family="Times,serif" font-size="14.00">StocksController</text>
<polyline fill="none" stroke="black" points="-134.466,-210.821 -23.5833,-210.821 "/>
<text text-anchor="start" x="-126.466" y="-195.621" font-family="Times,serif" font-size="14.00">create</text>
<text text-anchor="start" x="-126.466" y="-181.621" font-family="Times,serif" font-size="14.00">destroy</text>
<text text-anchor="start" x="-126.466" y="-167.621" font-family="Times,serif" font-size="14.00">edit</text>
<text text-anchor="start" x="-126.466" y="-153.621" font-family="Times,serif" font-size="14.00">index</text>
<text text-anchor="start" x="-126.466" y="-139.621" font-family="Times,serif" font-size="14.00">new</text>
<text text-anchor="start" x="-126.466" y="-125.621" font-family="Times,serif" font-size="14.00">show</text>
<text text-anchor="start" x="-126.466" y="-111.621" font-family="Times,serif" font-size="14.00">update</text>
<polyline fill="none" stroke="black" points="-134.466,-104.821 -23.5833,-104.821 "/>
<polyline fill="none" stroke="black" points="-134.466,-80.8211 -23.5833,-80.8211 "/>
<text text-anchor="start" x="-126.466" y="-65.6211" font-family="Times,serif" font-size="14.00">_layout</text>
</g>
<!-- ApplicationController&#45;&gt;StocksController -->
<g id="edge4" class="edge"><title>ApplicationController&#45;&gt;StocksController</title>
<path fill="none" stroke="black" d="M-103.444,86.1313C-99.3271,47.0266 -93.2538,-10.6622 -88.1941,-58.7235"/>
</g>
<!-- OmniauthCallbacksController -->
<g id="node4" class="node"><title>OmniauthCallbacksController</title>
<path fill="none" stroke="black" d="M222.106,-210.32C222.106,-210.32 382.851,-210.32 382.851,-210.32 388.851,-210.32 394.851,-216.32 394.851,-222.32 394.851,-222.32 394.851,-316.32 394.851,-316.32 394.851,-322.32 388.851,-328.32 382.851,-328.32 382.851,-328.32 222.106,-328.32 222.106,-328.32 216.106,-328.32 210.106,-322.32 210.106,-316.32 210.106,-316.32 210.106,-222.32 210.106,-222.32 210.106,-216.32 216.106,-210.32 222.106,-210.32"/>
<text text-anchor="middle" x="302.478" y="-313.12" font-family="Times,serif" font-size="14.00">OmniauthCallbacksController</text>
<polyline fill="none" stroke="black" points="210.106,-306.32 394.851,-306.32 "/>
<text text-anchor="start" x="218.106" y="-291.12" font-family="Times,serif" font-size="14.00">github</text>
<text text-anchor="start" x="218.106" y="-277.12" font-family="Times,serif" font-size="14.00">google_oauth2</text>
<text text-anchor="start" x="218.106" y="-263.12" font-family="Times,serif" font-size="14.00">handle_callback</text>
<polyline fill="none" stroke="black" points="210.106,-256.32 394.851,-256.32 "/>
<polyline fill="none" stroke="black" points="210.106,-232.32 394.851,-232.32 "/>
<text text-anchor="start" x="218.106" y="-217.12" font-family="Times,serif" font-size="14.00">_layout</text>
</g>
<!-- UsersController -->
<g id="node7" class="node"><title>UsersController</title>
<path fill="none" stroke="black" d="M292.09,279.679C292.09,279.679 477.724,279.679 477.724,279.679 483.724,279.679 489.724,273.679 489.724,267.679 489.724,267.679 489.724,159.679 489.724,159.679 489.724,153.679 483.724,147.679 477.724,147.679 477.724,147.679 292.09,147.679 292.09,147.679 286.09,147.679 280.09,153.679 280.09,159.679 280.09,159.679 280.09,267.679 280.09,267.679 280.09,273.679 286.09,279.679 292.09,279.679"/>
<text text-anchor="middle" x="384.907" y="162.879" font-family="Times,serif" font-size="14.00">UsersController</text>
<polyline fill="none" stroke="black" points="280.09,169.679 489.724,169.679 "/>
<text text-anchor="start" x="288.09" y="184.879" font-family="Times,serif" font-size="14.00">_one_time_conditions_valid_152?</text>
<text text-anchor="start" x="288.09" y="198.879" font-family="Times,serif" font-size="14.00">create</text>
<text text-anchor="start" x="288.09" y="212.879" font-family="Times,serif" font-size="14.00">edit</text>
<text text-anchor="start" x="288.09" y="226.879" font-family="Times,serif" font-size="14.00">index</text>
<polyline fill="none" stroke="black" points="280.09,233.679 489.724,233.679 "/>
<polyline fill="none" stroke="black" points="280.09,257.679 489.724,257.679 "/>
<text text-anchor="start" x="288.09" y="272.879" font-family="Times,serif" font-size="14.00">_layout</text>
</g>
<!-- Devise::OmniauthCallbacksController -->
<g id="node8" class="node"><title>Devise::OmniauthCallbacksController</title>
<ellipse fill="none" stroke="black" cx="558.05" cy="-269.319" rx="146.34" ry="18"/>
<text text-anchor="middle" x="558.05" y="-265.119" font-family="Times,serif" font-size="14.00">Devise::OmniauthCallbacksController</text>
</g>
<!-- Devise::OmniauthCallbacksController&#45;&gt;OmniauthCallbacksController -->
<g id="edge2" class="edge"><title>Devise::OmniauthCallbacksController&#45;&gt;OmniauthCallbacksController</title>
<path fill="none" stroke="black" d="M411.605,-269.32C406.029,-269.32 400.501,-269.32 395.065,-269.32"/>
</g>
<!-- Devise::RegistrationsController -->
<g id="node9" class="node"><title>Devise::RegistrationsController</title>
<ellipse fill="none" stroke="black" cx="631.16" cy="213.681" rx="122.695" ry="18"/>
<text text-anchor="middle" x="631.16" y="217.881" font-family="Times,serif" font-size="14.00">Devise::RegistrationsController</text>
</g>
<!-- Devise::RegistrationsController&#45;&gt;UsersController -->
<g id="edge5" class="edge"><title>Devise::RegistrationsController&#45;&gt;UsersController</title>
<path fill="none" stroke="black" d="M508.394,213.68C502.25,213.68 496.104,213.68 490.019,213.68"/>
</g>
</g>
</svg>
