<?xml version="1.0" encoding="UTF-8" standalone="no"?>
<!DOCTYPE svg PUBLIC "-//W3C//DTD SVG 1.1//EN"
 "http://www.w3.org/Graphics/SVG/1.1/DTD/svg11.dtd">
<!-- Generated by graphviz version 2.38.0 (20140413.2041)
 -->
<!-- Title: controllers_diagram Pages: 1 -->
<svg width="957pt" height="637pt"
 viewBox="0.00 0.00 957.33 637.27" xmlns="http://www.w3.org/2000/svg" xmlns:xlink="http://www.w3.org/1999/xlink">
<g id="graph0" class="graph" transform="scale(1 1) rotate(0) translate(207.576 360.82)">
<title>controllers_diagram</title>
<polygon fill="white" stroke="none" points="-207.576,276.453 -207.576,-360.82 749.757,-360.82 749.757,276.453 -207.576,276.453"/>
<!-- _diagram_info -->
<g id="node1" class="node"><title>_diagram_info</title>
<text text-anchor="start" x="212.312" y="8.9" font-family="Times,serif" font-size="13.00">Controllers diagram</text>
<text text-anchor="start" x="212.312" y="21.9" font-family="Times,serif" font-size="13.00">Date: Sep 15 2014 &#45; 18:52</text>
<text text-anchor="start" x="212.312" y="34.9" font-family="Times,serif" font-size="13.00">Migration version: 20140913212655</text>
<text text-anchor="start" x="212.312" y="47.9" font-family="Times,serif" font-size="13.00">Generated by RailRoady 1.1.2</text>
<text text-anchor="start" x="212.312" y="60.9" font-family="Times,serif" font-size="13.00">http://railroady.prestonlee.com</text>
</g>
<!-- ApplicationController -->
<g id="node2" class="node"><title>ApplicationController</title>
<path fill="none" stroke="black" d="M-44.3476,66.3706C-44.3476,66.3706 134.287,66.3706 134.287,66.3706 140.287,66.3706 146.287,60.3706 146.287,54.3706 146.287,54.3706 146.287,-11.6294 146.287,-11.6294 146.287,-17.6294 140.287,-23.6294 134.287,-23.6294 134.287,-23.6294 -44.3476,-23.6294 -44.3476,-23.6294 -50.3476,-23.6294 -56.3476,-17.6294 -56.3476,-11.6294 -56.3476,-11.6294 -56.3476,54.3706 -56.3476,54.3706 -56.3476,60.3706 -50.3476,66.3706 -44.3476,66.3706"/>
<text text-anchor="middle" x="44.9698" y="-8.42936" font-family="Times,serif" font-size="14.00">ApplicationController</text>
<polyline fill="none" stroke="black" points="-56.3476,-1.62936 146.287,-1.62936 "/>
<text text-anchor="start" x="-48.3476" y="13.5706" font-family="Times,serif" font-size="14.00">_one_time_conditions_valid_98?</text>
<polyline fill="none" stroke="black" points="-56.3476,20.3706 146.287,20.3706 "/>
<polyline fill="none" stroke="black" points="-56.3476,44.3706 146.287,44.3706 "/>
<text text-anchor="start" x="-48.3476" y="59.5706" font-family="Times,serif" font-size="14.00">_layout</text>
</g>
<!-- HomeController -->
<g id="node3" class="node"><title>HomeController</title>
<path fill="none" stroke="black" d="M124.599,226.81C124.599,226.81 208.358,226.81 208.358,226.81 214.358,226.81 220.358,220.81 220.358,214.81 220.358,214.81 220.358,148.81 220.358,148.81 220.358,142.81 214.358,136.81 208.358,136.81 208.358,136.81 124.599,136.81 124.599,136.81 118.599,136.81 112.599,142.81 112.599,148.81 112.599,148.81 112.599,214.81 112.599,214.81 112.599,220.81 118.599,226.81 124.599,226.81"/>
<text text-anchor="middle" x="166.479" y="152.01" font-family="Times,serif" font-size="14.00">HomeController</text>
<polyline fill="none" stroke="black" points="112.599,158.81 220.358,158.81 "/>
<text text-anchor="start" x="120.599" y="174.01" font-family="Times,serif" font-size="14.00">index</text>
<polyline fill="none" stroke="black" points="112.599,180.81 220.358,180.81 "/>
<polyline fill="none" stroke="black" points="112.599,204.81 220.358,204.81 "/>
<text text-anchor="start" x="120.599" y="220.01" font-family="Times,serif" font-size="14.00">_layout</text>
</g>
<!-- ApplicationController&#45;&gt;HomeController -->
<g id="edge1" class="edge"><title>ApplicationController&#45;&gt;HomeController</title>
<path fill="none" stroke="black" d="M79.1402,66.489C95.7761,88.455 115.725,114.795 132.355,136.753"/>
</g>
<!-- PortfoliosController -->
<g id="node5" class="node"><title>PortfoliosController</title>
<path fill="none" stroke="black" d="M-191.576,271.953C-191.576,271.953 -5.94078,271.953 -5.94078,271.953 0.0592212,271.953 6.05922,265.953 6.05922,259.953 6.05922,259.953 6.05922,95.9526 6.05922,95.9526 6.05922,89.9526 0.0592212,83.9526 -5.94078,83.9526 -5.94078,83.9526 -191.576,83.9526 -191.576,83.9526 -197.576,83.9526 -203.576,89.9526 -203.576,95.9526 -203.576,95.9526 -203.576,259.953 -203.576,259.953 -203.576,265.953 -197.576,271.953 -191.576,271.953"/>
<text text-anchor="middle" x="-98.7582" y="99.1526" font-family="Times,serif" font-size="14.00">PortfoliosController</text>
<polyline fill="none" stroke="black" points="-203.576,105.953 6.05922,105.953 "/>
<text text-anchor="start" x="-195.576" y="121.153" font-family="Times,serif" font-size="14.00">_one_time_conditions_valid_130?</text>
<text text-anchor="start" x="-195.576" y="135.153" font-family="Times,serif" font-size="14.00">create</text>
<text text-anchor="start" x="-195.576" y="149.153" font-family="Times,serif" font-size="14.00">destroy</text>
<text text-anchor="start" x="-195.576" y="163.153" font-family="Times,serif" font-size="14.00">edit</text>
<text text-anchor="start" x="-195.576" y="177.153" font-family="Times,serif" font-size="14.00">index</text>
<text text-anchor="start" x="-195.576" y="191.153" font-family="Times,serif" font-size="14.00">new</text>
<text text-anchor="start" x="-195.576" y="205.153" font-family="Times,serif" font-size="14.00">show</text>
<text text-anchor="start" x="-195.576" y="219.153" font-family="Times,serif" font-size="14.00">update</text>
<polyline fill="none" stroke="black" points="-203.576,225.953 6.05922,225.953 "/>
<polyline fill="none" stroke="black" points="-203.576,249.953 6.05922,249.953 "/>
<text text-anchor="start" x="-195.576" y="265.153" font-family="Times,serif" font-size="14.00">_layout</text>
</g>
<!-- ApplicationController&#45;&gt;PortfoliosController -->
<g id="edge3" class="edge"><title>ApplicationController&#45;&gt;PortfoliosController</title>
<path fill="none" stroke="black" d="M3.3977,66.6606C-1.65962,72.1702 -6.96193,77.9467 -12.3791,83.8483"/>
</g>
<!-- PortstocksController -->
<g id="node6" class="node"><title>PortstocksController</title>
<path fill="none" stroke="black" d="M-153.649,-81.6913C-153.649,-81.6913 -45.7663,-81.6913 -45.7663,-81.6913 -39.7663,-81.6913 -33.7663,-87.6913 -33.7663,-93.6913 -33.7663,-93.6913 -33.7663,-173.691 -33.7663,-173.691 -33.7663,-179.691 -39.7663,-185.691 -45.7663,-185.691 -45.7663,-185.691 -153.649,-185.691 -153.649,-185.691 -159.649,-185.691 -165.649,-179.691 -165.649,-173.691 -165.649,-173.691 -165.649,-93.6913 -165.649,-93.6913 -165.649,-87.6913 -159.649,-81.6913 -153.649,-81.6913"/>
<text text-anchor="middle" x="-99.7077" y="-170.491" font-family="Times,serif" font-size="14.00">PortstocksController</text>
<polyline fill="none" stroke="black" points="-165.649,-163.691 -33.7663,-163.691 "/>
<text text-anchor="start" x="-157.649" y="-148.491" font-family="Times,serif" font-size="14.00">create</text>
<text text-anchor="start" x="-157.649" y="-134.491" font-family="Times,serif" font-size="14.00">new</text>
<polyline fill="none" stroke="black" points="-165.649,-127.691 -33.7663,-127.691 "/>
<polyline fill="none" stroke="black" points="-165.649,-103.691 -33.7663,-103.691 "/>
<text text-anchor="start" x="-157.649" y="-88.4913" font-family="Times,serif" font-size="14.00">_layout</text>
</g>
<!-- ApplicationController&#45;&gt;PortstocksController -->
<g id="edge4" class="edge"><title>ApplicationController&#45;&gt;PortstocksController</title>
<path fill="none" stroke="black" d="M2.73413,-23.8965C-14.1138,-41.9537 -33.6132,-62.8527 -51.0495,-81.5405"/>
</g>
<!-- StocksController -->
<g id="node7" class="node"><title>StocksController</title>
<path fill="none" stroke="black" d="M122.229,-52.3701C122.229,-52.3701 209.112,-52.3701 209.112,-52.3701 215.112,-52.3701 221.112,-58.3701 221.112,-64.3701 221.112,-64.3701 221.112,-214.37 221.112,-214.37 221.112,-220.37 215.112,-226.37 209.112,-226.37 209.112,-226.37 122.229,-226.37 122.229,-226.37 116.229,-226.37 110.229,-220.37 110.229,-214.37 110.229,-214.37 110.229,-64.3701 110.229,-64.3701 110.229,-58.3701 116.229,-52.3701 122.229,-52.3701"/>
<text text-anchor="middle" x="165.67" y="-211.17" font-family="Times,serif" font-size="14.00">StocksController</text>
<polyline fill="none" stroke="black" points="110.229,-204.37 221.112,-204.37 "/>
<text text-anchor="start" x="118.229" y="-189.17" font-family="Times,serif" font-size="14.00">create</text>
<text text-anchor="start" x="118.229" y="-175.17" font-family="Times,serif" font-size="14.00">destroy</text>
<text text-anchor="start" x="118.229" y="-161.17" font-family="Times,serif" font-size="14.00">edit</text>
<text text-anchor="start" x="118.229" y="-147.17" font-family="Times,serif" font-size="14.00">index</text>
<text text-anchor="start" x="118.229" y="-133.17" font-family="Times,serif" font-size="14.00">new</text>
<text text-anchor="start" x="118.229" y="-119.17" font-family="Times,serif" font-size="14.00">show</text>
<text text-anchor="start" x="118.229" y="-105.17" font-family="Times,serif" font-size="14.00">update</text>
<polyline fill="none" stroke="black" points="110.229,-98.3701 221.112,-98.3701 "/>
<polyline fill="none" stroke="black" points="110.229,-74.3701 221.112,-74.3701 "/>
<text text-anchor="start" x="118.229" y="-59.1701" font-family="Times,serif" font-size="14.00">_layout</text>
</g>
<!-- ApplicationController&#45;&gt;StocksController -->
<g id="edge5" class="edge"><title>ApplicationController&#45;&gt;StocksController</title>
<path fill="none" stroke="black" d="M78.9128,-23.8324C88.6048,-36.7396 99.4288,-51.1541 110.056,-65.3063"/>
</g>
<!-- OmniauthCallbacksController -->
<g id="node4" class="node"><title>OmniauthCallbacksController</title>
<path fill="none" stroke="black" d="M-89.8941,-238.32C-89.8941,-238.32 70.851,-238.32 70.851,-238.32 76.851,-238.32 82.851,-244.32 82.851,-250.32 82.851,-250.32 82.851,-344.32 82.851,-344.32 82.851,-350.32 76.851,-356.32 70.851,-356.32 70.851,-356.32 -89.8941,-356.32 -89.8941,-356.32 -95.8941,-356.32 -101.894,-350.32 -101.894,-344.32 -101.894,-344.32 -101.894,-250.32 -101.894,-250.32 -101.894,-244.32 -95.8941,-238.32 -89.8941,-238.32"/>
<text text-anchor="middle" x="-9.52154" y="-341.12" font-family="Times,serif" font-size="14.00">OmniauthCallbacksController</text>
<polyline fill="none" stroke="black" points="-101.894,-334.32 82.851,-334.32 "/>
<text text-anchor="start" x="-93.8941" y="-319.12" font-family="Times,serif" font-size="14.00">github</text>
<text text-anchor="start" x="-93.8941" y="-305.12" font-family="Times,serif" font-size="14.00">google_oauth2</text>
<text text-anchor="start" x="-93.8941" y="-291.12" font-family="Times,serif" font-size="14.00">handle_callback</text>
<polyline fill="none" stroke="black" points="-101.894,-284.32 82.851,-284.32 "/>
<polyline fill="none" stroke="black" points="-101.894,-260.32 82.851,-260.32 "/>
<text text-anchor="start" x="-93.8941" y="-245.12" font-family="Times,serif" font-size="14.00">_layout</text>
</g>
<!-- UsersController -->
<g id="node8" class="node"><title>UsersController</title>
<path fill="none" stroke="black" d="M284.09,271.679C284.09,271.679 469.724,271.679 469.724,271.679 475.724,271.679 481.724,265.679 481.724,259.679 481.724,259.679 481.724,151.679 481.724,151.679 481.724,145.679 475.724,139.679 469.724,139.679 469.724,139.679 284.09,139.679 284.09,139.679 278.09,139.679 272.09,145.679 272.09,151.679 272.09,151.679 272.09,259.679 272.09,259.679 272.09,265.679 278.09,271.679 284.09,271.679"/>
<text text-anchor="middle" x="376.907" y="154.879" font-family="Times,serif" font-size="14.00">UsersController</text>
<polyline fill="none" stroke="black" points="272.09,161.679 481.724,161.679 "/>
<text text-anchor="start" x="280.09" y="176.879" font-family="Times,serif" font-size="14.00">_one_time_conditions_valid_168?</text>
<text text-anchor="start" x="280.09" y="190.879" font-family="Times,serif" font-size="14.00">create</text>
<text text-anchor="start" x="280.09" y="204.879" font-family="Times,serif" font-size="14.00">edit</text>
<text text-anchor="start" x="280.09" y="218.879" font-family="Times,serif" font-size="14.00">index</text>
<polyline fill="none" stroke="black" points="272.09,225.679 481.724,225.679 "/>
<polyline fill="none" stroke="black" points="272.09,249.679 481.724,249.679 "/>
<text text-anchor="start" x="280.09" y="264.879" font-family="Times,serif" font-size="14.00">_layout</text>
</g>
<!-- Devise::OmniauthCallbacksController -->
<g id="node9" class="node"><title>Devise::OmniauthCallbacksController</title>
<ellipse fill="none" stroke="black" cx="246.05" cy="-297.319" rx="146.34" ry="18"/>
<text text-anchor="middle" x="246.05" y="-293.119" font-family="Times,serif" font-size="14.00">Devise::OmniauthCallbacksController</text>
</g>
<!-- Devise::OmniauthCallbacksController&#45;&gt;OmniauthCallbacksController -->
<g id="edge2" class="edge"><title>Devise::OmniauthCallbacksController&#45;&gt;OmniauthCallbacksController</title>
<path fill="none" stroke="black" d="M99.6051,-297.32C94.0286,-297.32 88.5006,-297.32 83.0647,-297.32"/>
</g>
<!-- Devise::RegistrationsController -->
<g id="node10" class="node"><title>Devise::RegistrationsController</title>
<ellipse fill="none" stroke="black" cx="623.16" cy="205.681" rx="122.695" ry="18"/>
<text text-anchor="middle" x="623.16" y="209.881" font-family="Times,serif" font-size="14.00">Devise::RegistrationsController</text>
</g>
<!-- Devise::RegistrationsController&#45;&gt;UsersController -->
<g id="edge6" class="edge"><title>Devise::RegistrationsController&#45;&gt;UsersController</title>
<path fill="none" stroke="black" d="M500.394,205.68C494.25,205.68 488.104,205.68 482.019,205.68"/>
</g>
</g>
</svg>
