<?xml version="1.0" encoding="UTF-8" standalone="no"?>
<!DOCTYPE svg PUBLIC "-//W3C//DTD SVG 1.1//EN"
 "http://www.w3.org/Graphics/SVG/1.1/DTD/svg11.dtd">
<!-- Generated by graphviz version 2.38.0 (20140413.2041)
 -->
<!-- Title: models_diagram Pages: 1 -->
<svg width="486pt" height="993pt"
 viewBox="0.00 0.00 486.22 993.00" xmlns="http://www.w3.org/2000/svg" xmlns:xlink="http://www.w3.org/1999/xlink">
<g id="graph0" class="graph" transform="scale(1 1) rotate(0) translate(4 989)">
<title>models_diagram</title>
<polygon fill="white" stroke="none" points="-4,4 -4,-989 482.221,-989 482.221,4 -4,4"/>
<!-- _diagram_info -->
<g id="node1" class="node"><title>_diagram_info</title>
<text text-anchor="start" x="10.8176" y="-970.6" font-family="Times,serif" font-size="13.00">Models diagram</text>
<text text-anchor="start" x="10.8176" y="-957.6" font-family="Times,serif" font-size="13.00">Date: Sep 15 2014 &#45; 18:52</text>
<text text-anchor="start" x="10.8176" y="-944.6" font-family="Times,serif" font-size="13.00">Migration version: 20140913212655</text>
<text text-anchor="start" x="10.8176" y="-931.6" font-family="Times,serif" font-size="13.00">Generated by RailRoady 1.1.2</text>
<text text-anchor="start" x="10.8176" y="-918.6" font-family="Times,serif" font-size="13.00">http://railroady.prestonlee.com</text>
</g>
<!-- Authentication -->
<g id="node2" class="node"><title>Authentication</title>
<path fill="none" stroke="black" d="M12,-344.5C12,-344.5 121.011,-344.5 121.011,-344.5 127.011,-344.5 133.011,-350.5 133.011,-356.5 133.011,-356.5 133.011,-446.5 133.011,-446.5 133.011,-452.5 127.011,-458.5 121.011,-458.5 121.011,-458.5 12,-458.5 12,-458.5 6,-458.5 0,-452.5 0,-446.5 0,-446.5 0,-356.5 0,-356.5 0,-350.5 6,-344.5 12,-344.5"/>
<text text-anchor="middle" x="66.5054" y="-443.3" font-family="Times,serif" font-size="14.00">Authentication</text>
<polyline fill="none" stroke="black" points="0,-436.5 133.011,-436.5 "/>
<text text-anchor="start" x="8" y="-421.3" font-family="Times,serif" font-size="14.00">id :integer</text>
<text text-anchor="start" x="8" y="-407.3" font-family="Times,serif" font-size="14.00">provider :string</text>
<text text-anchor="start" x="8" y="-393.3" font-family="Times,serif" font-size="14.00">uid :string</text>
<text text-anchor="start" x="8" y="-379.3" font-family="Times,serif" font-size="14.00">user_id :integer</text>
<text text-anchor="start" x="8" y="-365.3" font-family="Times,serif" font-size="14.00">created_at :datetime</text>
<text text-anchor="start" x="8" y="-351.3" font-family="Times,serif" font-size="14.00">updated_at :datetime</text>
</g>
<!-- Portfolio -->
<g id="node3" class="node"><title>Portfolio</title>
<path fill="none" stroke="black" d="M335,-344.5C335,-344.5 444.011,-344.5 444.011,-344.5 450.011,-344.5 456.011,-350.5 456.011,-356.5 456.011,-356.5 456.011,-446.5 456.011,-446.5 456.011,-452.5 450.011,-458.5 444.011,-458.5 444.011,-458.5 335,-458.5 335,-458.5 329,-458.5 323,-452.5 323,-446.5 323,-446.5 323,-356.5 323,-356.5 323,-350.5 329,-344.5 335,-344.5"/>
<text text-anchor="middle" x="389.505" y="-443.3" font-family="Times,serif" font-size="14.00">Portfolio</text>
<polyline fill="none" stroke="black" points="323,-436.5 456.011,-436.5 "/>
<text text-anchor="start" x="331" y="-421.3" font-family="Times,serif" font-size="14.00">id :integer</text>
<text text-anchor="start" x="331" y="-407.3" font-family="Times,serif" font-size="14.00">name :string</text>
<text text-anchor="start" x="331" y="-393.3" font-family="Times,serif" font-size="14.00">user_id :integer</text>
<text text-anchor="start" x="331" y="-379.3" font-family="Times,serif" font-size="14.00">created_at :datetime</text>
<text text-anchor="start" x="331" y="-365.3" font-family="Times,serif" font-size="14.00">updated_at :datetime</text>
<text text-anchor="start" x="331" y="-351.3" font-family="Times,serif" font-size="14.00">balance :float</text>
</g>
<!-- Portstock -->
<g id="node4" class="node"><title>Portstock</title>
<path fill="none" stroke="black" d="M335,-0.5C335,-0.5 444.011,-0.5 444.011,-0.5 450.011,-0.5 456.011,-6.5 456.011,-12.5 456.011,-12.5 456.011,-116.5 456.011,-116.5 456.011,-122.5 450.011,-128.5 444.011,-128.5 444.011,-128.5 335,-128.5 335,-128.5 329,-128.5 323,-122.5 323,-116.5 323,-116.5 323,-12.5 323,-12.5 323,-6.5 329,-0.5 335,-0.5"/>
<text text-anchor="middle" x="389.505" y="-113.3" font-family="Times,serif" font-size="14.00">Portstock</text>
<polyline fill="none" stroke="black" points="323,-106.5 456.011,-106.5 "/>
<text text-anchor="start" x="331" y="-91.3" font-family="Times,serif" font-size="14.00">id :integer</text>
<text text-anchor="start" x="331" y="-77.3" font-family="Times,serif" font-size="14.00">portfolio_id :integer</text>
<text text-anchor="start" x="331" y="-63.3" font-family="Times,serif" font-size="14.00">stock_id :integer</text>
<text text-anchor="start" x="331" y="-49.3" font-family="Times,serif" font-size="14.00">quantity :integer</text>
<text text-anchor="start" x="331" y="-35.3" font-family="Times,serif" font-size="14.00">price_paid :float</text>
<text text-anchor="start" x="331" y="-21.3" font-family="Times,serif" font-size="14.00">created_at :datetime</text>
<text text-anchor="start" x="331" y="-7.3" font-family="Times,serif" font-size="14.00">updated_at :datetime</text>
</g>
<!-- Portfolio&#45;&gt;Portstock -->
<g id="edge2" class="edge"><title>Portfolio&#45;&gt;Portstock</title>
<path fill="none" stroke="#a86fce" d="M389.505,-336.193C389.505,-279.823 389.505,-197.906 389.505,-138.967"/>
<ellipse fill="none" stroke="#a86fce" cx="389.505" cy="-340.429" rx="4" ry="4"/>
<polygon fill="#a86fce" stroke="#a86fce" points="389.505,-138.609 394.005,-128.609 389.505,-133.609 389.505,-128.609 389.505,-128.609 389.505,-128.609 389.505,-133.609 385.005,-128.609 389.505,-138.609 389.505,-138.609"/>
</g>
<!-- Stock -->
<g id="node5" class="node"><title>Stock</title>
<path fill="none" stroke="black" d="M240,-165.5C240,-165.5 349.011,-165.5 349.011,-165.5 355.011,-165.5 361.011,-171.5 361.011,-177.5 361.011,-177.5 361.011,-295.5 361.011,-295.5 361.011,-301.5 355.011,-307.5 349.011,-307.5 349.011,-307.5 240,-307.5 240,-307.5 234,-307.5 228,-301.5 228,-295.5 228,-295.5 228,-177.5 228,-177.5 228,-171.5 234,-165.5 240,-165.5"/>
<text text-anchor="middle" x="294.505" y="-292.3" font-family="Times,serif" font-size="14.00">Stock</text>
<polyline fill="none" stroke="black" points="228,-285.5 361.011,-285.5 "/>
<text text-anchor="start" x="236" y="-270.3" font-family="Times,serif" font-size="14.00">id :integer</text>
<text text-anchor="start" x="236" y="-256.3" font-family="Times,serif" font-size="14.00">portfolio_id :integer</text>
<text text-anchor="start" x="236" y="-242.3" font-family="Times,serif" font-size="14.00">user_id :integer</text>
<text text-anchor="start" x="236" y="-228.3" font-family="Times,serif" font-size="14.00">name :string</text>
<text text-anchor="start" x="236" y="-214.3" font-family="Times,serif" font-size="14.00">symbol :string</text>
<text text-anchor="start" x="236" y="-200.3" font-family="Times,serif" font-size="14.00">price :float</text>
<text text-anchor="start" x="236" y="-186.3" font-family="Times,serif" font-size="14.00">created_at :datetime</text>
<text text-anchor="start" x="236" y="-172.3" font-family="Times,serif" font-size="14.00">updated_at :datetime</text>
</g>
<!-- Portfolio&#45;&gt;Stock -->
<g id="edge3" class="edge"><title>Portfolio&#45;&gt;Stock</title>
<path fill="none" stroke="#569ec8" d="M351.709,-335.649C348.004,-329.293 344.218,-322.796 340.445,-316.322"/>
<polygon fill="#569ec8" stroke="#569ec8" points="351.776,-335.765 352.924,-346.671 354.294,-340.085 356.812,-344.405 356.812,-344.405 356.812,-344.405 354.294,-340.085 360.7,-342.139 351.776,-335.765 351.776,-335.765"/>
<polygon fill="#569ec8" stroke="#569ec8" points="340.352,-316.162 339.204,-305.257 337.834,-311.843 335.316,-307.523 335.316,-307.523 335.316,-307.523 337.834,-311.843 331.428,-309.789 340.352,-316.162 340.352,-316.162"/>
</g>
<!-- Stock&#45;&gt;Portstock -->
<g id="edge6" class="edge"><title>Stock&#45;&gt;Portstock</title>
<path fill="none" stroke="#2e501b" d="M337.7,-158.205C341.499,-151.407 345.335,-144.542 349.11,-137.787"/>
<ellipse fill="none" stroke="#2e501b" cx="335.645" cy="-161.881" rx="4.00002" ry="4.00002"/>
<polygon fill="#2e501b" stroke="#2e501b" points="349.332,-137.39 358.138,-130.855 351.771,-133.025 354.21,-128.66 354.21,-128.66 354.21,-128.66 351.771,-133.025 350.282,-126.465 349.332,-137.39 349.332,-137.39"/>
</g>
<!-- User -->
<g id="node6" class="node"><title>User</title>
<path fill="none" stroke="black" d="M89.2275,-495.5C89.2275,-495.5 269.783,-495.5 269.783,-495.5 275.783,-495.5 281.783,-501.5 281.783,-507.5 281.783,-507.5 281.783,-863.5 281.783,-863.5 281.783,-869.5 275.783,-875.5 269.783,-875.5 269.783,-875.5 89.2275,-875.5 89.2275,-875.5 83.2275,-875.5 77.2275,-869.5 77.2275,-863.5 77.2275,-863.5 77.2275,-507.5 77.2275,-507.5 77.2275,-501.5 83.2275,-495.5 89.2275,-495.5"/>
<text text-anchor="middle" x="179.505" y="-860.3" font-family="Times,serif" font-size="14.00">User</text>
<polyline fill="none" stroke="black" points="77.2275,-853.5 281.783,-853.5 "/>
<text text-anchor="start" x="85.2275" y="-838.3" font-family="Times,serif" font-size="14.00">id :integer</text>
<text text-anchor="start" x="85.2275" y="-824.3" font-family="Times,serif" font-size="14.00">email :string</text>
<text text-anchor="start" x="85.2275" y="-810.3" font-family="Times,serif" font-size="14.00">encrypted_password :string</text>
<text text-anchor="start" x="85.2275" y="-796.3" font-family="Times,serif" font-size="14.00">reset_password_token :string</text>
<text text-anchor="start" x="85.2275" y="-782.3" font-family="Times,serif" font-size="14.00">reset_password_sent_at :datetime</text>
<text text-anchor="start" x="85.2275" y="-768.3" font-family="Times,serif" font-size="14.00">remember_created_at :datetime</text>
<text text-anchor="start" x="85.2275" y="-754.3" font-family="Times,serif" font-size="14.00">sign_in_count :integer</text>
<text text-anchor="start" x="85.2275" y="-740.3" font-family="Times,serif" font-size="14.00">current_sign_in_at :datetime</text>
<text text-anchor="start" x="85.2275" y="-726.3" font-family="Times,serif" font-size="14.00">last_sign_in_at :datetime</text>
<text text-anchor="start" x="85.2275" y="-712.3" font-family="Times,serif" font-size="14.00">current_sign_in_ip :string</text>
<text text-anchor="start" x="85.2275" y="-698.3" font-family="Times,serif" font-size="14.00">last_sign_in_ip :string</text>
<text text-anchor="start" x="85.2275" y="-684.3" font-family="Times,serif" font-size="14.00">confirmation_token :string</text>
<text text-anchor="start" x="85.2275" y="-670.3" font-family="Times,serif" font-size="14.00">confirmed_at :datetime</text>
<text text-anchor="start" x="85.2275" y="-656.3" font-family="Times,serif" font-size="14.00">confirmation_sent_at :datetime</text>
<text text-anchor="start" x="85.2275" y="-642.3" font-family="Times,serif" font-size="14.00">unconfirmed_email :string</text>
<text text-anchor="start" x="85.2275" y="-628.3" font-family="Times,serif" font-size="14.00">created_at :datetime</text>
<text text-anchor="start" x="85.2275" y="-614.3" font-family="Times,serif" font-size="14.00">updated_at :datetime</text>
<text text-anchor="start" x="85.2275" y="-600.3" font-family="Times,serif" font-size="14.00">first_name :string</text>
<text text-anchor="start" x="85.2275" y="-586.3" font-family="Times,serif" font-size="14.00">last_name :string</text>
<text text-anchor="start" x="85.2275" y="-572.3" font-family="Times,serif" font-size="14.00">street :string</text>
<text text-anchor="start" x="85.2275" y="-558.3" font-family="Times,serif" font-size="14.00">town :string</text>
<text text-anchor="start" x="85.2275" y="-544.3" font-family="Times,serif" font-size="14.00">county :string</text>
<text text-anchor="start" x="85.2275" y="-530.3" font-family="Times,serif" font-size="14.00">post_code :string</text>
<text text-anchor="start" x="85.2275" y="-516.3" font-family="Times,serif" font-size="14.00">dob :date</text>
<text text-anchor="start" x="85.2275" y="-502.3" font-family="Times,serif" font-size="14.00">user_name :string</text>
</g>
<!-- User&#45;&gt;Authentication -->
<g id="edge10" class="edge"><title>User&#45;&gt;Authentication</title>
<path fill="none" stroke="#be23ae" d="M100.641,-487.687C97.9459,-480.962 95.3322,-474.439 92.8301,-468.195"/>
<ellipse fill="none" stroke="#be23ae" cx="102.174" cy="-491.515" rx="4.00001" ry="4.00001"/>
<polygon fill="#be23ae" stroke="#be23ae" points="92.7143,-467.906 93.1718,-456.95 90.8545,-463.265 88.9947,-458.624 88.9947,-458.624 88.9947,-458.624 90.8545,-463.265 84.8176,-460.298 92.7143,-467.906 92.7143,-467.906"/>
</g>
<!-- User&#45;&gt;Portfolio -->
<g id="edge8" class="edge"><title>User&#45;&gt;Portfolio</title>
<path fill="none" stroke="#449bde" d="M286.943,-540.227C306.083,-514.524 325.115,-488.967 341.494,-466.973"/>
<ellipse fill="none" stroke="#449bde" cx="284.434" cy="-543.596" rx="4.00002" ry="4.00002"/>
<polygon fill="#449bde" stroke="#449bde" points="341.663,-466.746 351.245,-461.413 344.649,-462.736 347.635,-458.725 347.635,-458.725 347.635,-458.725 344.649,-462.736 344.026,-456.038 341.663,-466.746 341.663,-466.746"/>
</g>
<!-- User&#45;&gt;Stock -->
<g id="edge9" class="edge"><title>User&#45;&gt;Stock</title>
<path fill="none" stroke="#f02383" d="M230.707,-485.48C245.991,-426.073 261.876,-364.33 273.972,-317.314"/>
<polygon fill="#f02383" stroke="#f02383" points="230.684,-485.571 223.834,-494.134 229.438,-490.413 228.192,-495.256 228.192,-495.256 228.192,-495.256 229.438,-490.413 232.55,-496.377 230.684,-485.571 230.684,-485.571"/>
<polygon fill="#f02383" stroke="#f02383" points="274.002,-317.196 280.852,-308.632 275.248,-312.353 276.494,-307.511 276.494,-307.511 276.494,-307.511 275.248,-312.353 272.136,-306.39 274.002,-317.196 274.002,-317.196"/>
</g>
<!-- ActiveRecord::Base -->
<g id="node7" class="node"><title>ActiveRecord::Base</title>
<ellipse fill="none" stroke="black" cx="309.505" cy="-948.5" rx="81.1422" ry="18"/>
<text text-anchor="middle" x="309.505" y="-944.3" font-family="Times,serif" font-size="14.00">ActiveRecord::Base</text>
</g>
<!-- ActiveRecord::Base&#45;&gt;Authentication -->
<g id="edge1" class="edge"><title>ActiveRecord::Base&#45;&gt;Authentication</title>
<path fill="none" stroke="black" d="M274.011,-932.155C257.615,-925.416 237.77,-917.748 219.505,-912 153.695,-891.29 111.375,-930.056 68.5054,-876 -27.7805,-754.588 16.6453,-555.252 46.767,-458.575"/>
</g>
<!-- ActiveRecord::Base&#45;&gt;Portfolio -->
<g id="edge4" class="edge"><title>ActiveRecord::Base&#45;&gt;Portfolio</title>
<path fill="none" stroke="black" d="M313.107,-930.501C316.104,-916.044 320.372,-894.713 323.505,-876 348.661,-725.788 371.664,-547.635 382.676,-458.777"/>
</g>
<!-- ActiveRecord::Base&#45;&gt;Portstock -->
<g id="edge5" class="edge"><title>ActiveRecord::Base&#45;&gt;Portstock</title>
<path fill="none" stroke="black" d="M326.093,-930.723C338.688,-917.07 355.495,-896.73 365.505,-876 470.129,-659.355 497.457,-582.454 465.505,-344 455.388,-268.494 430.492,-184.47 411.934,-128.661"/>
</g>
<!-- ActiveRecord::Base&#45;&gt;Stock -->
<g id="edge7" class="edge"><title>ActiveRecord::Base&#45;&gt;Stock</title>
<path fill="none" stroke="black" d="M309.142,-930.301C307.342,-845.115 299.336,-466.158 295.987,-307.609"/>
</g>
<!-- ActiveRecord::Base&#45;&gt;User -->
<g id="edge11" class="edge"><title>ActiveRecord::Base&#45;&gt;User</title>
<path fill="none" stroke="black" d="M300.976,-930.375C294.508,-917.39 284.858,-898.016 273.773,-875.76"/>
</g>
</g>
</svg>
