<?xml version="1.0" encoding="UTF-8" standalone="no"?>
<!DOCTYPE svg PUBLIC "-//W3C//DTD SVG 1.1//EN"
 "http://www.w3.org/Graphics/SVG/1.1/DTD/svg11.dtd">
<!-- Generated by graphviz version 2.38.0 (20140413.2041)
 -->
<!-- Title: models_diagram Pages: 1 -->
<svg width="424pt" height="369pt"
 viewBox="0.00 0.00 424.20 369.00" xmlns="http://www.w3.org/2000/svg" xmlns:xlink="http://www.w3.org/1999/xlink">
<g id="graph0" class="graph" transform="scale(1 1) rotate(0) translate(4 365)">
<title>models_diagram</title>
<polygon fill="white" stroke="none" points="-4,4 -4,-365 420.204,-365 420.204,4 -4,4"/>
<!-- _diagram_info -->
<g id="node1" class="node"><title>_diagram_info</title>
<text text-anchor="start" x="8" y="-346.6" font-family="Times,serif" font-size="13.00">Models diagram</text>
<text text-anchor="start" x="8" y="-333.6" font-family="Times,serif" font-size="13.00">Date: Sep 15 2014 &#45; 09:18</text>
<text text-anchor="start" x="8" y="-320.6" font-family="Times,serif" font-size="13.00">Migration version: 20140913212655</text>
<text text-anchor="start" x="8" y="-307.6" font-family="Times,serif" font-size="13.00">Generated by RailRoady 1.1.2</text>
<text text-anchor="start" x="8" y="-294.6" font-family="Times,serif" font-size="13.00">http://railroady.prestonlee.com</text>
</g>
<!-- Authentication -->
<g id="node2" class="node"><title>Authentication</title>
<ellipse fill="none" stroke="black" cx="145.688" cy="-162" rx="62.8252" ry="18"/>
<text text-anchor="middle" x="145.688" y="-157.8" font-family="Times,serif" font-size="14.00">Authentication</text>
</g>
<!-- Portfolio -->
<g id="node3" class="node"><title>Portfolio</title>
<ellipse fill="none" stroke="black" cx="306.688" cy="-162" rx="41.6025" ry="18"/>
<text text-anchor="middle" x="306.688" y="-157.8" font-family="Times,serif" font-size="14.00">Portfolio</text>
</g>
<!-- Stock -->
<g id="node5" class="node"><title>Stock</title>
<ellipse fill="none" stroke="black" cx="331.688" cy="-90" rx="30.0035" ry="18"/>
<text text-anchor="middle" x="331.688" y="-85.8" font-family="Times,serif" font-size="14.00">Stock</text>
</g>
<!-- Portfolio&#45;&gt;Stock -->
<g id="edge2" class="edge"><title>Portfolio&#45;&gt;Stock</title>
<path fill="none" stroke="#365ba6" d="M316.179,-134.426C318.174,-128.837 320.279,-122.944 322.272,-117.363"/>
<polygon fill="#365ba6" stroke="#365ba6" points="316.103,-134.638 308.502,-142.541 314.421,-139.346 312.74,-144.055 312.74,-144.055 312.74,-144.055 314.421,-139.346 316.977,-145.568 316.103,-134.638 316.103,-134.638"/>
<polygon fill="#365ba6" stroke="#365ba6" points="322.328,-117.206 329.93,-109.303 324.01,-112.498 325.692,-107.789 325.692,-107.789 325.692,-107.789 324.01,-112.498 321.454,-106.275 322.328,-117.206 322.328,-117.206"/>
</g>
<!-- Portstock -->
<g id="node4" class="node"><title>Portstock</title>
<ellipse fill="none" stroke="black" cx="372.688" cy="-18" rx="43.5319" ry="18"/>
<text text-anchor="middle" x="372.688" y="-13.8" font-family="Times,serif" font-size="14.00">Portstock</text>
</g>
<!-- Stock&#45;&gt;Portstock -->
<g id="edge5" class="edge"><title>Stock&#45;&gt;Portstock</title>
<path fill="none" stroke="#3dea3e" d="M345.402,-65.5853C349.355,-58.837 353.687,-51.441 357.712,-44.5692"/>
<ellipse fill="none" stroke="#3dea3e" cx="343.219" cy="-69.3131" rx="4.00002" ry="4.00002"/>
<polygon fill="#3dea3e" stroke="#3dea3e" points="357.891,-44.2622 366.828,-37.9077 360.418,-39.9478 362.945,-35.6334 362.945,-35.6334 362.945,-35.6334 360.418,-39.9478 359.062,-33.3591 357.891,-44.2622 357.891,-44.2622"/>
</g>
<!-- User -->
<g id="node6" class="node"><title>User</title>
<ellipse fill="none" stroke="black" cx="243.688" cy="-234" rx="27" ry="18"/>
<text text-anchor="middle" x="243.688" y="-229.8" font-family="Times,serif" font-size="14.00">User</text>
</g>
<!-- User&#45;&gt;Authentication -->
<g id="edge9" class="edge"><title>User&#45;&gt;Authentication</title>
<path fill="none" stroke="#459a8e" d="M218.864,-215.269C205.904,-206.011 189.932,-194.603 176.22,-184.809"/>
<ellipse fill="none" stroke="#459a8e" cx="222.458" cy="-217.836" rx="4.00002" ry="4.00002"/>
<polygon fill="#459a8e" stroke="#459a8e" points="176.159,-184.765 170.637,-175.291 172.09,-181.859 168.021,-178.952 168.021,-178.952 168.021,-178.952 172.09,-181.859 165.406,-182.614 176.159,-184.765 176.159,-184.765"/>
</g>
<!-- User&#45;&gt;Portfolio -->
<g id="edge7" class="edge"><title>User&#45;&gt;Portfolio</title>
<path fill="none" stroke="#a86c19" d="M262.645,-211.937C269.783,-204.005 277.949,-194.931 285.295,-186.77"/>
<ellipse fill="none" stroke="#a86c19" cx="259.724" cy="-215.182" rx="4.00002" ry="4.00002"/>
<polygon fill="#a86c19" stroke="#a86c19" points="285.337,-186.723 295.371,-182.301 288.681,-183.007 292.026,-179.29 292.026,-179.29 292.026,-179.29 288.681,-183.007 288.681,-176.28 285.337,-186.723 285.337,-186.723"/>
</g>
<!-- User&#45;&gt;Stock -->
<g id="edge8" class="edge"><title>User&#45;&gt;Stock</title>
<path fill="none" stroke="#db171b" d="M241.842,-205.72C241.84,-187.065 244.417,-162.468 255.688,-144 265.775,-127.471 283.179,-114.768 298.79,-105.948"/>
<polygon fill="#db171b" stroke="#db171b" points="241.847,-205.929 237.597,-216.038 241.971,-210.927 242.095,-215.926 242.095,-215.926 242.095,-215.926 241.971,-210.927 246.594,-215.814 241.847,-205.929 241.847,-205.929"/>
<polygon fill="#db171b" stroke="#db171b" points="298.877,-105.901 309.819,-105.176 303.291,-103.552 307.704,-101.203 307.704,-101.203 307.704,-101.203 303.291,-103.552 305.59,-97.2308 298.877,-105.901 298.877,-105.901"/>
</g>
<!-- ActiveRecord::Base -->
<g id="node7" class="node"><title>ActiveRecord::Base</title>
<ellipse fill="none" stroke="black" cx="306.688" cy="-324.5" rx="81.1422" ry="18"/>
<text text-anchor="middle" x="306.688" y="-320.3" font-family="Times,serif" font-size="14.00">ActiveRecord::Base</text>
</g>
<!-- ActiveRecord::Base&#45;&gt;Authentication -->
<g id="edge1" class="edge"><title>ActiveRecord::Base&#45;&gt;Authentication</title>
<path fill="none" stroke="black" d="M279.58,-307.468C258.537,-294.225 229.388,-274.073 207.688,-252 185.773,-229.709 166.21,-198.905 155.163,-180"/>
</g>
<!-- ActiveRecord::Base&#45;&gt;Portfolio -->
<g id="edge3" class="edge"><title>ActiveRecord::Base&#45;&gt;Portfolio</title>
<path fill="none" stroke="black" d="M306.688,-306.324C306.688,-275.432 306.688,-210.855 306.688,-180.053"/>
</g>
<!-- ActiveRecord::Base&#45;&gt;Portstock -->
<g id="edge4" class="edge"><title>ActiveRecord::Base&#45;&gt;Portstock</title>
<path fill="none" stroke="black" d="M321.286,-306.736C332.566,-292.931 347.721,-272.381 356.688,-252 389.589,-177.216 380.609,-75.8053 375.294,-36.0159"/>
</g>
<!-- ActiveRecord::Base&#45;&gt;Stock -->
<g id="edge6" class="edge"><title>ActiveRecord::Base&#45;&gt;Stock</title>
<path fill="none" stroke="black" d="M314.959,-306.348C327.184,-279.945 349.512,-227.421 357.688,-180 360.406,-164.233 361.305,-159.586 357.688,-144 354.629,-130.822 347.812,-117.142 341.926,-106.983"/>
</g>
<!-- ActiveRecord::Base&#45;&gt;User -->
<g id="edge10" class="edge"><title>ActiveRecord::Base&#45;&gt;User</title>
<path fill="none" stroke="black" d="M294.541,-306.436C283.027,-290.263 265.882,-266.178 254.743,-250.529"/>
</g>
</g>
</svg>
