<?xml version="1.0" encoding="UTF-8" standalone="no"?>
<!DOCTYPE svg PUBLIC "-//W3C//DTD SVG 1.1//EN"
 "http://www.w3.org/Graphics/SVG/1.1/DTD/svg11.dtd">
<!-- Generated by graphviz version 2.38.0 (20140413.2041)
 -->
<!-- Title: models_diagram Pages: 1 -->
<svg width="441pt" height="369pt"
 viewBox="0.00 0.00 441.15 369.00" xmlns="http://www.w3.org/2000/svg" xmlns:xlink="http://www.w3.org/1999/xlink">
<g id="graph0" class="graph" transform="scale(1 1) rotate(0) translate(4 365)">
<title>models_diagram</title>
<polygon fill="white" stroke="none" points="-4,4 -4,-365 437.152,-365 437.152,4 -4,4"/>
<!-- _diagram_info -->
<g id="node1" class="node"><title>_diagram_info</title>
<text text-anchor="start" x="8" y="-346.6" font-family="Times,serif" font-size="13.00">Models diagram</text>
<text text-anchor="start" x="8" y="-333.6" font-family="Times,serif" font-size="13.00">Date: Sep 15 2014 &#45; 18:52</text>
<text text-anchor="start" x="8" y="-320.6" font-family="Times,serif" font-size="13.00">Migration version: 20140913212655</text>
<text text-anchor="start" x="8" y="-307.6" font-family="Times,serif" font-size="13.00">Generated by RailRoady 1.1.2</text>
<text text-anchor="start" x="8" y="-294.6" font-family="Times,serif" font-size="13.00">http://railroady.prestonlee.com</text>
</g>
<!-- Authentication -->
<g id="node2" class="node"><title>Authentication</title>
<ellipse fill="none" stroke="black" cx="177.688" cy="-162" rx="62.8252" ry="18"/>
<text text-anchor="middle" x="177.688" y="-157.8" font-family="Times,serif" font-size="14.00">Authentication</text>
</g>
<!-- Portfolio -->
<g id="node3" class="node"><title>Portfolio</title>
<ellipse fill="none" stroke="black" cx="376.688" cy="-162" rx="41.6025" ry="18"/>
<text text-anchor="middle" x="376.688" y="-157.8" font-family="Times,serif" font-size="14.00">Portfolio</text>
</g>
<!-- Portstock -->
<g id="node4" class="node"><title>Portstock</title>
<ellipse fill="none" stroke="black" cx="376.688" cy="-18" rx="43.5319" ry="18"/>
<text text-anchor="middle" x="376.688" y="-13.8" font-family="Times,serif" font-size="14.00">Portstock</text>
</g>
<!-- Portfolio&#45;&gt;Portstock -->
<g id="edge2" class="edge"><title>Portfolio&#45;&gt;Portstock</title>
<path fill="none" stroke="#15681f" d="M376.688,-135.558C376.688,-110.444 376.688,-72.164 376.688,-46.3932"/>
<ellipse fill="none" stroke="#15681f" cx="376.688" cy="-139.871" rx="4" ry="4"/>
<polygon fill="#15681f" stroke="#15681f" points="376.688,-46.1893 381.188,-36.1892 376.688,-41.1893 376.688,-36.1893 376.688,-36.1893 376.688,-36.1893 376.688,-41.1893 372.188,-36.1893 376.688,-46.1893 376.688,-46.1893"/>
</g>
<!-- Stock -->
<g id="node5" class="node"><title>Stock</title>
<ellipse fill="none" stroke="black" cx="312.688" cy="-90" rx="30.0035" ry="18"/>
<text text-anchor="middle" x="312.688" y="-85.8" font-family="Times,serif" font-size="14.00">Stock</text>
</g>
<!-- Portfolio&#45;&gt;Stock -->
<g id="edge3" class="edge"><title>Portfolio&#45;&gt;Stock</title>
<path fill="none" stroke="#fb3fd8" d="M355.297,-137.604C348.382,-130.041 340.722,-121.662 333.825,-114.119"/>
<polygon fill="#fb3fd8" stroke="#fb3fd8" points="355.417,-137.736 358.844,-148.152 358.791,-141.426 362.165,-145.116 362.165,-145.116 362.165,-145.116 358.791,-141.426 365.486,-142.079 355.417,-137.736 355.417,-137.736"/>
<polygon fill="#fb3fd8" stroke="#fb3fd8" points="333.461,-113.72 330.034,-103.304 330.087,-110.03 326.713,-106.34 326.713,-106.34 326.713,-106.34 330.087,-110.03 323.392,-109.377 333.461,-113.72 333.461,-113.72"/>
</g>
<!-- Stock&#45;&gt;Portstock -->
<g id="edge6" class="edge"><title>Stock&#45;&gt;Portstock</title>
<path fill="none" stroke="#b14e9e" d="M331.99,-67.8877C339.275,-59.9207 347.606,-50.8079 355.087,-42.6256"/>
<ellipse fill="none" stroke="#b14e9e" cx="329.274" cy="-70.8589" rx="4.00002" ry="4.00002"/>
<polygon fill="#b14e9e" stroke="#b14e9e" points="355.189,-42.5139 365.258,-38.17 358.563,-38.8237 361.937,-35.1336 361.937,-35.1336 361.937,-35.1336 358.563,-38.8237 358.616,-32.0971 355.189,-42.5139 355.189,-42.5139"/>
</g>
<!-- User -->
<g id="node6" class="node"><title>User</title>
<ellipse fill="none" stroke="black" cx="251.688" cy="-234" rx="27" ry="18"/>
<text text-anchor="middle" x="251.688" y="-229.8" font-family="Times,serif" font-size="14.00">User</text>
</g>
<!-- User&#45;&gt;Authentication -->
<g id="edge10" class="edge"><title>User&#45;&gt;Authentication</title>
<path fill="none" stroke="#2e92d0" d="M230.726,-213.171C221.899,-204.821 211.562,-195.043 202.37,-186.348"/>
<ellipse fill="none" stroke="#2e92d0" cx="233.807" cy="-216.086" rx="4.00002" ry="4.00002"/>
<polygon fill="#2e92d0" stroke="#2e92d0" points="202.241,-186.226 198.069,-176.085 198.609,-182.79 194.976,-179.354 194.976,-179.354 194.976,-179.354 198.609,-182.79 191.884,-182.623 202.241,-186.226 202.241,-186.226"/>
</g>
<!-- User&#45;&gt;Portfolio -->
<g id="edge8" class="edge"><title>User&#45;&gt;Portfolio</title>
<path fill="none" stroke="#d32565" d="M278.841,-217.794C297.83,-207.16 323.305,-192.894 343.501,-181.585"/>
<ellipse fill="none" stroke="#d32565" cx="275.261" cy="-219.799" rx="4.00002" ry="4.00002"/>
<polygon fill="#d32565" stroke="#d32565" points="343.641,-181.506 354.565,-180.546 348.004,-179.063 352.366,-176.62 352.366,-176.62 352.366,-176.62 348.004,-179.063 350.168,-172.694 343.641,-181.506 343.641,-181.506"/>
</g>
<!-- User&#45;&gt;Stock -->
<g id="edge9" class="edge"><title>User&#45;&gt;Stock</title>
<path fill="none" stroke="#2435fc" d="M262.859,-206.994C273.8,-181.526 290.383,-142.921 301.373,-117.34"/>
<polygon fill="#2435fc" stroke="#2435fc" points="262.752,-207.245 254.67,-214.657 260.778,-211.839 258.805,-216.433 258.805,-216.433 258.805,-216.433 260.778,-211.839 262.939,-218.209 262.752,-207.245 262.752,-207.245"/>
<polygon fill="#2435fc" stroke="#2435fc" points="301.48,-117.09 309.562,-109.678 303.454,-112.496 305.427,-107.902 305.427,-107.902 305.427,-107.902 303.454,-112.496 301.292,-106.126 301.48,-117.09 301.48,-117.09"/>
</g>
<!-- ActiveRecord::Base -->
<g id="node7" class="node"><title>ActiveRecord::Base</title>
<ellipse fill="none" stroke="black" cx="306.688" cy="-324.5" rx="81.1422" ry="18"/>
<text text-anchor="middle" x="306.688" y="-320.3" font-family="Times,serif" font-size="14.00">ActiveRecord::Base</text>
</g>
<!-- ActiveRecord::Base&#45;&gt;Authentication -->
<g id="edge1" class="edge"><title>ActiveRecord::Base&#45;&gt;Authentication</title>
<path fill="none" stroke="black" d="M279.369,-307.332C259.517,-294.438 233.171,-274.8 215.688,-252 198.717,-229.868 187.777,-199.017 182.183,-180.06"/>
</g>
<!-- ActiveRecord::Base&#45;&gt;Portfolio -->
<g id="edge4" class="edge"><title>ActiveRecord::Base&#45;&gt;Portfolio</title>
<path fill="none" stroke="black" d="M314.179,-306.324C327.652,-275.432 355.817,-210.855 369.25,-180.053"/>
</g>
<!-- ActiveRecord::Base&#45;&gt;Portstock -->
<g id="edge5" class="edge"><title>ActiveRecord::Base&#45;&gt;Portstock</title>
<path fill="none" stroke="black" d="M327.998,-306.827C357.06,-282.578 407.783,-234.484 427.688,-180 446.703,-127.95 409.843,-65.0003 389.247,-35.6156"/>
</g>
<!-- ActiveRecord::Base&#45;&gt;Stock -->
<g id="edge7" class="edge"><title>ActiveRecord::Base&#45;&gt;Stock</title>
<path fill="none" stroke="black" d="M307.129,-306.404C308.239,-263.407 311.136,-151.145 312.246,-108.121"/>
</g>
<!-- ActiveRecord::Base&#45;&gt;User -->
<g id="edge11" class="edge"><title>ActiveRecord::Base&#45;&gt;User</title>
<path fill="none" stroke="black" d="M296.083,-306.436C286.094,-290.363 271.249,-266.477 261.521,-250.822"/>
</g>
</g>
</svg>
