<?xml version="1.0" encoding="UTF-8" standalone="no"?>
<!DOCTYPE svg PUBLIC "-//W3C//DTD SVG 1.1//EN"
 "http://www.w3.org/Graphics/SVG/1.1/DTD/svg11.dtd">
<!-- Generated by graphviz version 2.38.0 (20140413.2041)
 -->
<!-- Title: models_diagram Pages: 1 -->
<svg width="414pt" height="993pt"
 viewBox="0.00 0.00 414.01 993.00" xmlns="http://www.w3.org/2000/svg" xmlns:xlink="http://www.w3.org/1999/xlink">
<g id="graph0" class="graph" transform="scale(1 1) rotate(0) translate(4 989)">
<title>models_diagram</title>
<polygon fill="white" stroke="none" points="-4,4 -4,-989 410.011,-989 410.011,4 -4,4"/>
<!-- _diagram_info -->
<g id="node1" class="node"><title>_diagram_info</title>
<text text-anchor="start" x="21.8176" y="-970.6" font-family="Times,serif" font-size="13.00">Models diagram</text>
<text text-anchor="start" x="21.8176" y="-957.6" font-family="Times,serif" font-size="13.00">Date: Sep 15 2014 &#45; 09:18</text>
<text text-anchor="start" x="21.8176" y="-944.6" font-family="Times,serif" font-size="13.00">Migration version: 20140913212655</text>
<text text-anchor="start" x="21.8176" y="-931.6" font-family="Times,serif" font-size="13.00">Generated by RailRoady 1.1.2</text>
<text text-anchor="start" x="21.8176" y="-918.6" font-family="Times,serif" font-size="13.00">http://railroady.prestonlee.com</text>
</g>
<!-- Authentication -->
<g id="node2" class="node"><title>Authentication</title>
<path fill="none" stroke="black" d="M12,-344.5C12,-344.5 121.011,-344.5 121.011,-344.5 127.011,-344.5 133.011,-350.5 133.011,-356.5 133.011,-356.5 133.011,-446.5 133.011,-446.5 133.011,-452.5 127.011,-458.5 121.011,-458.5 121.011,-458.5 12,-458.5 12,-458.5 6,-458.5 0,-452.5 0,-446.5 0,-446.5 0,-356.5 0,-356.5 0,-350.5 6,-344.5 12,-344.5"/>
<text text-anchor="middle" x="66.5054" y="-443.3" font-family="Times,serif" font-size="14.00">Authentication</text>
<polyline fill="none" stroke="black" points="0,-436.5 133.011,-436.5 "/>
<text text-anchor="start" x="8" y="-421.3" font-family="Times,serif" font-size="14.00">id :integer</text>
<text text-anchor="start" x="8" y="-407.3" font-family="Times,serif" font-size="14.00">provider :string</text>
<text text-anchor="start" x="8" y="-393.3" font-family="Times,serif" font-size="14.00">uid :string</text>
<text text-anchor="start" x="8" y="-379.3" font-family="Times,serif" font-size="14.00">user_id :integer</text>
<text text-anchor="start" x="8" y="-365.3" font-family="Times,serif" font-size="14.00">created_at :datetime</text>
<text text-anchor="start" x="8" y="-351.3" font-family="Times,serif" font-size="14.00">updated_at :datetime</text>
</g>
<!-- Portfolio -->
<g id="node3" class="node"><title>Portfolio</title>
<path fill="none" stroke="black" d="M209,-344.5C209,-344.5 318.011,-344.5 318.011,-344.5 324.011,-344.5 330.011,-350.5 330.011,-356.5 330.011,-356.5 330.011,-446.5 330.011,-446.5 330.011,-452.5 324.011,-458.5 318.011,-458.5 318.011,-458.5 209,-458.5 209,-458.5 203,-458.5 197,-452.5 197,-446.5 197,-446.5 197,-356.5 197,-356.5 197,-350.5 203,-344.5 209,-344.5"/>
<text text-anchor="middle" x="263.505" y="-443.3" font-family="Times,serif" font-size="14.00">Portfolio</text>
<polyline fill="none" stroke="black" points="197,-436.5 330.011,-436.5 "/>
<text text-anchor="start" x="205" y="-421.3" font-family="Times,serif" font-size="14.00">id :integer</text>
<text text-anchor="start" x="205" y="-407.3" font-family="Times,serif" font-size="14.00">name :string</text>
<text text-anchor="start" x="205" y="-393.3" font-family="Times,serif" font-size="14.00">user_id :integer</text>
<text text-anchor="start" x="205" y="-379.3" font-family="Times,serif" font-size="14.00">created_at :datetime</text>
<text text-anchor="start" x="205" y="-365.3" font-family="Times,serif" font-size="14.00">updated_at :datetime</text>
<text text-anchor="start" x="205" y="-351.3" font-family="Times,serif" font-size="14.00">balance :float</text>
</g>
<!-- Stock -->
<g id="node5" class="node"><title>Stock</title>
<path fill="none" stroke="black" d="M228,-165.5C228,-165.5 337.011,-165.5 337.011,-165.5 343.011,-165.5 349.011,-171.5 349.011,-177.5 349.011,-177.5 349.011,-295.5 349.011,-295.5 349.011,-301.5 343.011,-307.5 337.011,-307.5 337.011,-307.5 228,-307.5 228,-307.5 222,-307.5 216,-301.5 216,-295.5 216,-295.5 216,-177.5 216,-177.5 216,-171.5 222,-165.5 228,-165.5"/>
<text text-anchor="middle" x="282.505" y="-292.3" font-family="Times,serif" font-size="14.00">Stock</text>
<polyline fill="none" stroke="black" points="216,-285.5 349.011,-285.5 "/>
<text text-anchor="start" x="224" y="-270.3" font-family="Times,serif" font-size="14.00">id :integer</text>
<text text-anchor="start" x="224" y="-256.3" font-family="Times,serif" font-size="14.00">portfolio_id :integer</text>
<text text-anchor="start" x="224" y="-242.3" font-family="Times,serif" font-size="14.00">user_id :integer</text>
<text text-anchor="start" x="224" y="-228.3" font-family="Times,serif" font-size="14.00">name :string</text>
<text text-anchor="start" x="224" y="-214.3" font-family="Times,serif" font-size="14.00">symbol :string</text>
<text text-anchor="start" x="224" y="-200.3" font-family="Times,serif" font-size="14.00">price :float</text>
<text text-anchor="start" x="224" y="-186.3" font-family="Times,serif" font-size="14.00">created_at :datetime</text>
<text text-anchor="start" x="224" y="-172.3" font-family="Times,serif" font-size="14.00">updated_at :datetime</text>
</g>
<!-- Portfolio&#45;&gt;Stock -->
<g id="edge2" class="edge"><title>Portfolio&#45;&gt;Stock</title>
<path fill="none" stroke="#017791" d="M271.232,-334.217C271.872,-328.719 272.524,-323.126 273.175,-317.542"/>
<polygon fill="#017791" stroke="#017791" points="271.202,-334.472 265.574,-343.884 270.623,-339.438 270.044,-344.405 270.044,-344.405 270.044,-344.405 270.623,-339.438 274.514,-344.926 271.202,-334.472 271.202,-334.472"/>
<polygon fill="#017791" stroke="#017791" points="273.185,-317.455 278.813,-308.044 273.764,-312.489 274.343,-307.523 274.343,-307.523 274.343,-307.523 273.764,-312.489 269.873,-307.002 273.185,-317.455 273.185,-317.455"/>
</g>
<!-- Portstock -->
<g id="node4" class="node"><title>Portstock</title>
<path fill="none" stroke="black" d="M285,-0.5C285,-0.5 394.011,-0.5 394.011,-0.5 400.011,-0.5 406.011,-6.5 406.011,-12.5 406.011,-12.5 406.011,-116.5 406.011,-116.5 406.011,-122.5 400.011,-128.5 394.011,-128.5 394.011,-128.5 285,-128.5 285,-128.5 279,-128.5 273,-122.5 273,-116.5 273,-116.5 273,-12.5 273,-12.5 273,-6.5 279,-0.5 285,-0.5"/>
<text text-anchor="middle" x="339.505" y="-113.3" font-family="Times,serif" font-size="14.00">Portstock</text>
<polyline fill="none" stroke="black" points="273,-106.5 406.011,-106.5 "/>
<text text-anchor="start" x="281" y="-91.3" font-family="Times,serif" font-size="14.00">id :integer</text>
<text text-anchor="start" x="281" y="-77.3" font-family="Times,serif" font-size="14.00">portfolio_id :integer</text>
<text text-anchor="start" x="281" y="-63.3" font-family="Times,serif" font-size="14.00">stock_id :integer</text>
<text text-anchor="start" x="281" y="-49.3" font-family="Times,serif" font-size="14.00">quantity :integer</text>
<text text-anchor="start" x="281" y="-35.3" font-family="Times,serif" font-size="14.00">price_paid :float</text>
<text text-anchor="start" x="281" y="-21.3" font-family="Times,serif" font-size="14.00">created_at :datetime</text>
<text text-anchor="start" x="281" y="-7.3" font-family="Times,serif" font-size="14.00">updated_at :datetime</text>
</g>
<!-- Stock&#45;&gt;Portstock -->
<g id="edge5" class="edge"><title>Stock&#45;&gt;Portstock</title>
<path fill="none" stroke="#8d118b" d="M308.615,-157.629C310.75,-151.262 312.903,-144.842 315.025,-138.512"/>
<ellipse fill="none" stroke="#8d118b" cx="307.29" cy="-161.581" rx="4.00001" ry="4.00001"/>
<polygon fill="#8d118b" stroke="#8d118b" points="315.149,-138.141 322.595,-130.091 316.739,-133.401 318.328,-128.66 318.328,-128.66 318.328,-128.66 316.739,-133.401 314.062,-127.23 315.149,-138.141 315.149,-138.141"/>
</g>
<!-- User -->
<g id="node6" class="node"><title>User</title>
<path fill="none" stroke="black" d="M100.228,-495.5C100.228,-495.5 280.783,-495.5 280.783,-495.5 286.783,-495.5 292.783,-501.5 292.783,-507.5 292.783,-507.5 292.783,-863.5 292.783,-863.5 292.783,-869.5 286.783,-875.5 280.783,-875.5 280.783,-875.5 100.228,-875.5 100.228,-875.5 94.2275,-875.5 88.2275,-869.5 88.2275,-863.5 88.2275,-863.5 88.2275,-507.5 88.2275,-507.5 88.2275,-501.5 94.2275,-495.5 100.228,-495.5"/>
<text text-anchor="middle" x="190.505" y="-860.3" font-family="Times,serif" font-size="14.00">User</text>
<polyline fill="none" stroke="black" points="88.2275,-853.5 292.783,-853.5 "/>
<text text-anchor="start" x="96.2275" y="-838.3" font-family="Times,serif" font-size="14.00">id :integer</text>
<text text-anchor="start" x="96.2275" y="-824.3" font-family="Times,serif" font-size="14.00">email :string</text>
<text text-anchor="start" x="96.2275" y="-810.3" font-family="Times,serif" font-size="14.00">encrypted_password :string</text>
<text text-anchor="start" x="96.2275" y="-796.3" font-family="Times,serif" font-size="14.00">reset_password_token :string</text>
<text text-anchor="start" x="96.2275" y="-782.3" font-family="Times,serif" font-size="14.00">reset_password_sent_at :datetime</text>
<text text-anchor="start" x="96.2275" y="-768.3" font-family="Times,serif" font-size="14.00">remember_created_at :datetime</text>
<text text-anchor="start" x="96.2275" y="-754.3" font-family="Times,serif" font-size="14.00">sign_in_count :integer</text>
<text text-anchor="start" x="96.2275" y="-740.3" font-family="Times,serif" font-size="14.00">current_sign_in_at :datetime</text>
<text text-anchor="start" x="96.2275" y="-726.3" font-family="Times,serif" font-size="14.00">last_sign_in_at :datetime</text>
<text text-anchor="start" x="96.2275" y="-712.3" font-family="Times,serif" font-size="14.00">current_sign_in_ip :string</text>
<text text-anchor="start" x="96.2275" y="-698.3" font-family="Times,serif" font-size="14.00">last_sign_in_ip :string</text>
<text text-anchor="start" x="96.2275" y="-684.3" font-family="Times,serif" font-size="14.00">confirmation_token :string</text>
<text text-anchor="start" x="96.2275" y="-670.3" font-family="Times,serif" font-size="14.00">confirmed_at :datetime</text>
<text text-anchor="start" x="96.2275" y="-656.3" font-family="Times,serif" font-size="14.00">confirmation_sent_at :datetime</text>
<text text-anchor="start" x="96.2275" y="-642.3" font-family="Times,serif" font-size="14.00">unconfirmed_email :string</text>
<text text-anchor="start" x="96.2275" y="-628.3" font-family="Times,serif" font-size="14.00">created_at :datetime</text>
<text text-anchor="start" x="96.2275" y="-614.3" font-family="Times,serif" font-size="14.00">updated_at :datetime</text>
<text text-anchor="start" x="96.2275" y="-600.3" font-family="Times,serif" font-size="14.00">first_name :string</text>
<text text-anchor="start" x="96.2275" y="-586.3" font-family="Times,serif" font-size="14.00">last_name :string</text>
<text text-anchor="start" x="96.2275" y="-572.3" font-family="Times,serif" font-size="14.00">street :string</text>
<text text-anchor="start" x="96.2275" y="-558.3" font-family="Times,serif" font-size="14.00">town :string</text>
<text text-anchor="start" x="96.2275" y="-544.3" font-family="Times,serif" font-size="14.00">county :string</text>
<text text-anchor="start" x="96.2275" y="-530.3" font-family="Times,serif" font-size="14.00">post_code :string</text>
<text text-anchor="start" x="96.2275" y="-516.3" font-family="Times,serif" font-size="14.00">dob :date</text>
<text text-anchor="start" x="96.2275" y="-502.3" font-family="Times,serif" font-size="14.00">user_name :string</text>
</g>
<!-- User&#45;&gt;Authentication -->
<g id="edge9" class="edge"><title>User&#45;&gt;Authentication</title>
<path fill="none" stroke="#5bc9fa" d="M103.964,-487.687C101.007,-480.962 98.1383,-474.439 95.3927,-468.195"/>
<ellipse fill="none" stroke="#5bc9fa" cx="105.669" cy="-491.566" rx="4.00002" ry="4.00002"/>
<polygon fill="#5bc9fa" stroke="#5bc9fa" points="95.2092,-467.778 95.3033,-456.812 93.1966,-463.201 91.1839,-458.624 91.1839,-458.624 91.1839,-458.624 93.1966,-463.201 87.0646,-460.435 95.2092,-467.778 95.2092,-467.778"/>
</g>
<!-- User&#45;&gt;Portfolio -->
<g id="edge7" class="edge"><title>User&#45;&gt;Portfolio</title>
<path fill="none" stroke="#b119e2" d="M241.531,-487.389C243.212,-480.894 244.844,-474.588 246.409,-468.542"/>
<ellipse fill="none" stroke="#b119e2" cx="240.504" cy="-491.356" rx="4.00001" ry="4.00001"/>
<polygon fill="#b119e2" stroke="#b119e2" points="246.471,-468.305 253.333,-459.752 247.724,-463.464 248.977,-458.624 248.977,-458.624 248.977,-458.624 247.724,-463.464 244.62,-457.496 246.471,-468.305 246.471,-468.305"/>
</g>
<!-- User&#45;&gt;Stock -->
<g id="edge8" class="edge"><title>User&#45;&gt;Stock</title>
<path fill="none" stroke="#627d49" d="M164.317,-485.318C164.662,-437.794 170.697,-388.093 187.505,-344 192.704,-330.362 200.54,-317.362 209.525,-305.427"/>
<polygon fill="#627d49" stroke="#627d49" points="164.317,-485.424 159.827,-495.428 164.322,-490.424 164.327,-495.424 164.327,-495.424 164.327,-495.424 164.322,-490.424 168.827,-495.419 164.317,-485.424 164.317,-485.424"/>
<polygon fill="#627d49" stroke="#627d49" points="209.713,-305.189 219.442,-300.129 212.812,-301.265 215.91,-297.341 215.91,-297.341 215.91,-297.341 212.812,-301.265 212.379,-294.552 209.713,-305.189 209.713,-305.189"/>
</g>
<!-- ActiveRecord::Base -->
<g id="node7" class="node"><title>ActiveRecord::Base</title>
<ellipse fill="none" stroke="black" cx="320.505" cy="-948.5" rx="81.1422" ry="18"/>
<text text-anchor="middle" x="320.505" y="-944.3" font-family="Times,serif" font-size="14.00">ActiveRecord::Base</text>
</g>
<!-- ActiveRecord::Base&#45;&gt;Authentication -->
<g id="edge1" class="edge"><title>ActiveRecord::Base&#45;&gt;Authentication</title>
<path fill="none" stroke="black" d="M285.011,-932.155C268.615,-925.416 248.77,-917.748 230.505,-912 164.695,-891.29 123,-929.555 79.5054,-876 -18.2198,-755.67 20.9223,-555.823 48.3578,-458.8"/>
</g>
<!-- ActiveRecord::Base&#45;&gt;Portfolio -->
<g id="edge3" class="edge"><title>ActiveRecord::Base&#45;&gt;Portfolio</title>
<path fill="none" stroke="black" d="M321.892,-930.382C326.347,-869.947 337.97,-661.279 301.505,-495 298.865,-482.96 294.766,-470.483 290.221,-458.738"/>
</g>
<!-- ActiveRecord::Base&#45;&gt;Portstock -->
<g id="edge4" class="edge"><title>ActiveRecord::Base&#45;&gt;Portstock</title>
<path fill="none" stroke="black" d="M334.367,-930.529C344.659,-916.768 357.85,-896.378 363.505,-876 426.738,-648.167 365.93,-580.42 362.505,-344 361.353,-264.433 366.886,-244.133 358.505,-165 357.255,-153.195 355.343,-140.698 353.206,-128.694"/>
</g>
<!-- ActiveRecord::Base&#45;&gt;Stock -->
<g id="edge6" class="edge"><title>ActiveRecord::Base&#45;&gt;Stock</title>
<path fill="none" stroke="black" d="M324.417,-930.337C340.253,-857.799 396.112,-569.725 339.505,-344 336.445,-331.795 331.688,-319.461 326.197,-307.729"/>
</g>
<!-- ActiveRecord::Base&#45;&gt;User -->
<g id="edge10" class="edge"><title>ActiveRecord::Base&#45;&gt;User</title>
<path fill="none" stroke="black" d="M311.976,-930.375C305.508,-917.39 295.858,-898.016 284.773,-875.76"/>
</g>
</g>
</svg>
